<svg xmlns="http://www.w3.org/2000/svg" width="104" height="16" fill="none"><g filter="url(#a)"><path fill="#fff" d="M5.688 14.252a11.72 11.72 0 0 1-2.988-.378c-.948-.264-1.722-.6-2.322-1.008l1.17-2.628c.564.36 1.212.66 1.944.9a7.525 7.525 0 0 0 2.214.342c.492 0 .888-.042 1.188-.126.3-.096.516-.216.648-.36a.772.772 0 0 0 .216-.54c0-.288-.132-.516-.396-.684-.264-.168-.606-.306-1.026-.414-.42-.108-.888-.216-1.404-.324a15.294 15.294 0 0 1-1.53-.414 6.389 6.389 0 0 1-1.386-.648A3.336 3.336 0 0 1 .99 6.908C.726 6.464.594 5.906.594 5.234c0-.756.204-1.44.612-2.052.42-.612 1.044-1.104 1.872-1.476.828-.372 1.86-.558 3.096-.558.828 0 1.638.096 2.43.288.804.18 1.518.45 2.142.81L9.648 4.892a8.161 8.161 0 0 0-1.782-.72 6.213 6.213 0 0 0-1.71-.252c-.492 0-.888.054-1.188.162-.3.096-.516.228-.648.396a.907.907 0 0 0-.198.576c0 .276.126.498.378.666.264.156.606.288 1.026.396.432.096.9.198 1.404.306.516.108 1.026.246 1.53.414.516.156.984.372 1.404.648.42.264.756.618 1.008 1.062.264.432.396.978.396 1.638 0 .732-.21 1.41-.63 2.034-.408.612-1.026 1.104-1.854 1.476-.816.372-1.848.558-3.096.558Zm12.05-.09c-1.08 0-2.046-.216-2.898-.648-.84-.432-1.5-1.026-1.98-1.782-.48-.768-.72-1.644-.72-2.628 0-.984.24-1.854.72-2.61a4.871 4.871 0 0 1 1.98-1.764c.852-.432 1.818-.648 2.898-.648 1.104 0 2.058.234 2.862.702a3.883 3.883 0 0 1 1.71 1.98l-2.646 1.35c-.228-.456-.51-.786-.846-.99A1.991 1.991 0 0 0 17.72 6.8c-.396 0-.756.09-1.08.27-.324.18-.582.444-.774.792-.18.336-.27.75-.27 1.242 0 .504.09.93.27 1.278.192.348.45.612.774.792.324.18.684.27 1.08.27s.762-.102 1.098-.306c.336-.216.618-.552.846-1.008l2.646 1.35a3.883 3.883 0 0 1-1.71 1.98c-.804.468-1.758.702-2.862.702Zm10.65 0c-1.068 0-2.016-.216-2.844-.648a5.03 5.03 0 0 1-1.962-1.782c-.468-.768-.701-1.644-.701-2.628 0-.984.233-1.854.701-2.61a4.899 4.899 0 0 1 1.962-1.764c.828-.432 1.776-.648 2.845-.648 1.067 0 2.015.216 2.844.648.84.42 1.494 1.008 1.961 1.764.468.756.703 1.626.703 2.61s-.234 1.86-.703 2.628c-.468.756-1.122 1.35-1.962 1.782-.828.432-1.776.648-2.843.648Zm0-2.718c.396 0 .744-.09 1.044-.27a1.89 1.89 0 0 0 .739-.792c.18-.36.27-.786.27-1.278s-.09-.906-.27-1.242a1.89 1.89 0 0 0-.738-.792 1.99 1.99 0 0 0-1.044-.27c-.384 0-.732.09-1.044.27-.3.18-.546.444-.738.792-.18.336-.27.75-.27 1.242s.09.918.27 1.278c.192.348.438.612.738.792.312.18.66.27 1.044.27ZM35.481 14V4.244h3.258v2.844l-.486-.81c.288-.732.756-1.278 1.404-1.638.648-.372 1.434-.558 2.358-.558V7.16a2.76 2.76 0 0 0-.414-.036 3.28 3.28 0 0 0-.36-.018c-.696 0-1.26.192-1.692.576-.432.372-.648.984-.648 1.836V14h-3.42Zm12.97.162c-1.153 0-2.16-.216-3.025-.648-.852-.444-1.518-1.044-1.998-1.8-.468-.768-.702-1.638-.702-2.61s.228-1.836.684-2.592a4.759 4.759 0 0 1 1.926-1.782c.816-.432 1.734-.648 2.754-.648.96 0 1.836.198 2.628.594a4.483 4.483 0 0 1 1.89 1.71c.468.756.702 1.674.702 2.754 0 .12-.006.258-.018.414l-.036.432h-7.722v-1.8h5.904l-1.296.504c.012-.444-.072-.828-.252-1.152a1.823 1.823 0 0 0-.72-.756c-.3-.18-.654-.27-1.062-.27-.408 0-.768.09-1.08.27-.3.18-.534.438-.702.774-.168.324-.252.708-.252 1.152v.522c0 .48.096.894.288 1.242.204.348.492.618.864.81.372.18.816.27 1.332.27.48 0 .888-.066 1.224-.198.348-.144.69-.36 1.026-.648l1.8 1.872a4.638 4.638 0 0 1-1.728 1.188c-.684.264-1.494.396-2.43.396Zm12.88.09c-.996 0-1.92-.156-2.772-.468a6.658 6.658 0 0 1-2.196-1.368 6.423 6.423 0 0 1-1.44-2.07c-.348-.804-.522-1.686-.522-2.646s.174-1.836.522-2.628c.348-.804.828-1.5 1.44-2.088a6.425 6.425 0 0 1 2.196-1.35 7.735 7.735 0 0 1 2.772-.486c1.164 0 2.202.204 3.114.612a5.991 5.991 0 0 1 2.304 1.764l-2.268 2.052a4.429 4.429 0 0 0-1.35-1.098 3.432 3.432 0 0 0-1.62-.378c-.516 0-.99.084-1.422.252a3.076 3.076 0 0 0-1.116.738c-.3.312-.54.69-.72 1.134a4.141 4.141 0 0 0-.252 1.476c0 .54.084 1.032.252 1.476.18.444.42.828.72 1.152.312.312.684.552 1.116.72.432.168.906.252 1.422.252.6 0 1.14-.126 1.62-.378a4.429 4.429 0 0 0 1.35-1.098l2.268 2.052a6.234 6.234 0 0 1-2.304 1.764c-.912.408-1.95.612-3.114.612ZM74.1 14v-1.818l-.234-.45V8.384c0-.54-.168-.954-.504-1.242-.324-.3-.846-.45-1.566-.45-.468 0-.942.078-1.422.234-.48.144-.888.348-1.224.612l-1.152-2.322c.552-.36 1.212-.636 1.98-.828a9.147 9.147 0 0 1 2.322-.306c1.584 0 2.808.366 3.672 1.098.876.72 1.314 1.854 1.314 3.402V14h-3.186Zm-2.88.162c-.78 0-1.44-.132-1.98-.396s-.954-.624-1.242-1.08a2.897 2.897 0 0 1-.414-1.53c0-.6.15-1.116.45-1.548.312-.444.786-.78 1.422-1.008.636-.24 1.458-.36 2.466-.36h2.304v1.782h-1.836c-.552 0-.942.09-1.17.27a.89.89 0 0 0-.324.72c0 .3.114.54.342.72.228.18.54.27.936.27.372 0 .708-.09 1.008-.27.312-.192.54-.48.684-.864l.468 1.26c-.18.672-.534 1.182-1.062 1.53-.516.336-1.2.504-2.052.504ZM79.444 14V4.244h3.258v2.844l-.486-.81c.288-.732.756-1.278 1.404-1.638.648-.372 1.434-.558 2.358-.558V7.16a2.76 2.76 0 0 0-.414-.036 3.28 3.28 0 0 0-.36-.018c-.696 0-1.26.192-1.692.576-.432.372-.648.984-.648 1.836V14h-3.42Zm12.105.162a4.906 4.906 0 0 1-2.43-.612 4.73 4.73 0 0 1-1.728-1.746c-.432-.756-.648-1.656-.648-2.7 0-1.032.216-1.92.648-2.664a4.559 4.559 0 0 1 1.728-1.746 4.906 4.906 0 0 1 2.43-.612c.84 0 1.548.18 2.124.54.588.36 1.032.912 1.332 1.656.3.744.45 1.686.45 2.826 0 1.164-.144 2.118-.432 2.862-.288.744-.72 1.296-1.296 1.656-.576.36-1.302.54-2.178.54Zm.72-2.718c.384 0 .726-.09 1.026-.27a1.89 1.89 0 0 0 .738-.792c.18-.36.27-.786.27-1.278s-.09-.906-.27-1.242a1.89 1.89 0 0 0-.738-.792c-.3-.18-.642-.27-1.026-.27-.396 0-.75.09-1.062.27-.3.18-.54.444-.72.792-.18.336-.27.75-.27 1.242s.09.918.27 1.278c.18.348.42.612.72.792.312.18.666.27 1.062.27ZM94.411 14v-1.674l.018-3.222-.18-3.222V.644h3.42V14h-3.258Z"/><path fill="red" d="M101.309 14.162c-.576 0-1.062-.192-1.457-.576-.397-.384-.595-.87-.595-1.458 0-.612.198-1.098.594-1.458.396-.372.882-.558 1.458-.558s1.062.186 1.458.558c.396.36.594.846.594 1.458 0 .588-.198 1.074-.594 1.458-.396.384-.882.576-1.458.576Z"/></g><defs><filter id="a" width="102.983" height="14.608" x=".378" y=".644" color-interpolation-filters="sRGB" filterUnits="userSpaceOnUse"><feFlood flood-opacity="0" result="BackgroundImageFix"/><feColorMatrix in="SourceAlpha" result="hardAlpha" values="0 0 0 0 0 0 0 0 0 0 0 0 0 0 0 0 0 0 127 0"/><feOffset dy="1"/><feComposite in2="hardAlpha" operator="out"/><feColorMatrix values="0 0 0 0 0 0 0 0 0 0 0 0 0 0 0 0 0 0 0.25 0"/><feBlend in2="BackgroundImageFix" result="effect1_dropShadow_703_1127"/><feBlend in="SourceGraphic" in2="effect1_dropShadow_703_1127" result="shape"/></filter></defs></svg>